<?xml version="1.0" encoding="utf-8"?>
<!-- Generator: Adobe Illustrator 14.0.0, SVG Export Plug-In . SVG Version: 6.00 Build 43363)  -->
<!DOCTYPE svg PUBLIC "-//W3C//DTD SVG 1.1//EN" "http://www.w3.org/Graphics/SVG/1.1/DTD/svg11.dtd">
<svg version="1.1" id="Layer_1" xmlns="http://www.w3.org/2000/svg" xmlns:xlink="http://www.w3.org/1999/xlink" x="0px" y="0px"
	 width="54px" height="54px" viewBox="0 0 54 54" enable-background="new 0 0 54 54" xml:space="preserve">
<linearGradient id="SVGID_1_" gradientUnits="userSpaceOnUse" x1="27.3276" y1="53.127" x2="27.3276" y2="0.873">
	<stop  offset="0" style="stop-color:#303F57"/>
	<stop  offset="1" style="stop-color:#445B7C"/>
</linearGradient>
<path fill="url(#SVGID_1_)" d="M53.455,27.001c0,14.43-11.698,26.125-26.128,26.125S1.199,41.432,1.199,27.001
	c0-14.432,11.698-26.129,26.128-26.129S53.455,12.57,53.455,27.001z"/>
<g>
	<linearGradient id="SVGID_2_" gradientUnits="userSpaceOnUse" x1="24.5737" y1="33.4668" x2="24.5737" y2="15.9775">
		<stop  offset="0" style="stop-color:#95A7C4"/>
		<stop  offset="0.5031" style="stop-color:#CAD6EB"/>
		<stop  offset="0.5337" style="stop-color:#D9E8FC"/>
		<stop  offset="1" style="stop-color:#FFFFFF"/>
	</linearGradient>
	<path fill="url(#SVGID_2_)" d="M30.321,15.977H18.826c-1.173,0-2.126,0.953-2.126,2.126V31.34c0,1.172,0.954,2.127,2.126,2.127
		h11.496c1.173,0,2.126-0.955,2.126-2.127V18.103C32.447,16.93,31.494,15.977,30.321,15.977z M30.01,31.096H19.137V18.347H30.01
		V31.096z"/>
</g>
<g>
	<linearGradient id="SVGID_3_" gradientUnits="userSpaceOnUse" x1="29.8291" y1="37.75" x2="29.8291" y2="20.9697">
		<stop  offset="0" style="stop-color:#95A7C4"/>
		<stop  offset="0.5031" style="stop-color:#CAD6EB"/>
		<stop  offset="0.5337" style="stop-color:#D9E8FC"/>
		<stop  offset="1" style="stop-color:#FFFFFF"/>
	</linearGradient>
	<path fill="url(#SVGID_3_)" d="M35.578,20.969H33.76v2.126h1.463v12.528H24.436v-0.771H22.31v1.127
		c0,0.977,0.795,1.771,1.772,1.771h11.497c0.977,0,1.771-0.795,1.771-1.771V22.74C37.35,21.763,36.555,20.969,35.578,20.969z"/>
</g>
<g>
	<g>
		<linearGradient id="SVGID_4_" gradientUnits="userSpaceOnUse" x1="24.4995" y1="29.1787" x2="24.4995" y2="20.2798">
			<stop  offset="0" style="stop-color:#95A7C4"/>
			<stop  offset="0.5031" style="stop-color:#CAD6EB"/>
			<stop  offset="0.5337" style="stop-color:#D9E8FC"/>
			<stop  offset="1" style="stop-color:#FFFFFF"/>
		</linearGradient>
		<path fill="url(#SVGID_4_)" d="M23.228,26.516c0,0.887,0.396,1.295,1.284,1.295c0.815,0,1.259-0.54,1.259-1.283
			c0-0.971-0.552-1.343-1.751-1.355v-1.367c1.116,0,1.547-0.312,1.547-1.116c0-0.6-0.396-1.043-1.115-1.043
			c-0.588,0-1.02,0.42-1.043,1.008h-1.583c0.012-1.595,1.187-2.375,2.638-2.375c1.559,0,2.687,0.816,2.687,2.351
			c0,0.755-0.36,1.535-1.043,1.883c0.924,0.36,1.248,1.115,1.248,2.087c0,1.715-1.259,2.579-2.818,2.579
			c-1.943,0-2.891-1.031-2.891-2.663H23.228z"/>
	</g>
</g>
</svg>
