<?xml version="1.0" encoding="UTF-8" standalone="no"?>
<!-- Generator: Adobe Illustrator 13.0.2, SVG Export Plug-In . SVG Version: 6.00 Build 14948)  -->

<svg
   xmlns:dc="http://purl.org/dc/elements/1.1/"
   xmlns:cc="http://creativecommons.org/ns#"
   xmlns:rdf="http://www.w3.org/1999/02/22-rdf-syntax-ns#"
   xmlns:svg="http://www.w3.org/2000/svg"
   xmlns="http://www.w3.org/2000/svg"
   xmlns:sodipodi="http://sodipodi.sourceforge.net/DTD/sodipodi-0.dtd"
   xmlns:inkscape="http://www.inkscape.org/namespaces/inkscape"
   version="1.1"
   id="Layer_1"
   x="0px"
   y="0px"
   width="100"
   height="100"
   viewBox="0 0 99.999998 100"
   xml:space="preserve"
   inkscape:version="0.47pre4 r22446"
   sodipodi:docname="go-anywhere.svg"><metadata
   id="metadata75"><rdf:RDF><cc:Work
       rdf:about=""><dc:format>image/svg+xml</dc:format><dc:type
         rdf:resource="http://purl.org/dc/dcmitype/StillImage" /><dc:title></dc:title></cc:Work></rdf:RDF></metadata><defs
   id="defs73"><inkscape:perspective
     sodipodi:type="inkscape:persp3d"
     inkscape:vp_x="0 : 150.125 : 1"
     inkscape:vp_y="0 : 1000 : 0"
     inkscape:vp_z="312.28101 : 150.125 : 1"
     inkscape:persp3d-origin="156.1405 : 100.08333 : 1"
     id="perspective77" /><filter
     id="filter2845"
     inkscape:label="Invert"
     x="0"
     y="0"
     width="1"
     height="1"
     inkscape:menu="Color"
     inkscape:menu-tooltip="Invert colors"
     color-interpolation-filters="sRGB"><feColorMatrix
       id="feColorMatrix2847"
       type="saturate"
       values="1"
       result="fbSourceGraphic" /><feColorMatrix
       id="feColorMatrix2849"
       in="fbSourceGraphic"
       values="-1 0 0 0 1 0 -1 0 0 1 0 0 -1 0 1 0 0 0 1 0 " /></filter><filter
     id="filter2851"
     inkscape:label="Invert"
     x="0"
     y="0"
     width="1"
     height="1"
     inkscape:menu="Color"
     inkscape:menu-tooltip="Invert colors"
     color-interpolation-filters="sRGB"><feColorMatrix
       id="feColorMatrix2853"
       type="saturate"
       values="1"
       result="fbSourceGraphic" /><feColorMatrix
       id="feColorMatrix2855"
       in="fbSourceGraphic"
       values="-1 0 0 0 1 0 -1 0 0 1 0 0 -1 0 1 0 0 0 1 0 " /></filter><filter
     id="filter2857"
     inkscape:label="Invert"
     x="0"
     y="0"
     width="1"
     height="1"
     inkscape:menu="Color"
     inkscape:menu-tooltip="Invert colors"
     color-interpolation-filters="sRGB"><feColorMatrix
       id="feColorMatrix2859"
       type="saturate"
       values="1"
       result="fbSourceGraphic" /><feColorMatrix
       id="feColorMatrix2861"
       in="fbSourceGraphic"
       values="-1 0 0 0 1 0 -1 0 0 1 0 0 -1 0 1 0 0 0 1 0 " /></filter><filter
     id="filter2863"
     inkscape:label="Invert"
     x="0"
     y="0"
     width="1"
     height="1"
     inkscape:menu="Color"
     inkscape:menu-tooltip="Invert colors"
     color-interpolation-filters="sRGB"><feColorMatrix
       id="feColorMatrix2865"
       type="saturate"
       values="1"
       result="fbSourceGraphic" /><feColorMatrix
       id="feColorMatrix2867"
       in="fbSourceGraphic"
       values="-1 0 0 0 1 0 -1 0 0 1 0 0 -1 0 1 0 0 0 1 0 " /></filter><filter
     id="filter2869"
     inkscape:label="Invert"
     x="0"
     y="0"
     width="1"
     height="1"
     inkscape:menu="Color"
     inkscape:menu-tooltip="Invert colors"
     color-interpolation-filters="sRGB"><feColorMatrix
       id="feColorMatrix2871"
       type="saturate"
       values="1"
       result="fbSourceGraphic" /><feColorMatrix
       id="feColorMatrix2873"
       in="fbSourceGraphic"
       values="-1 0 0 0 1 0 -1 0 0 1 0 0 -1 0 1 0 0 0 1 0 " /></filter><filter
     id="filter2875"
     inkscape:label="Invert"
     x="0"
     y="0"
     width="1"
     height="1"
     inkscape:menu="Color"
     inkscape:menu-tooltip="Invert colors"
     color-interpolation-filters="sRGB"><feColorMatrix
       id="feColorMatrix2877"
       type="saturate"
       values="1"
       result="fbSourceGraphic" /><feColorMatrix
       id="feColorMatrix2879"
       in="fbSourceGraphic"
       values="-1 0 0 0 1 0 -1 0 0 1 0 0 -1 0 1 0 0 0 1 0 " /></filter><filter
     id="filter2881"
     inkscape:label="Invert"
     x="0"
     y="0"
     width="1"
     height="1"
     inkscape:menu="Color"
     inkscape:menu-tooltip="Invert colors"
     color-interpolation-filters="sRGB"><feColorMatrix
       id="feColorMatrix2883"
       type="saturate"
       values="1"
       result="fbSourceGraphic" /><feColorMatrix
       id="feColorMatrix2885"
       in="fbSourceGraphic"
       values="-1 0 0 0 1 0 -1 0 0 1 0 0 -1 0 1 0 0 0 1 0 " /></filter><filter
     id="filter2887"
     inkscape:label="Invert"
     x="0"
     y="0"
     width="1"
     height="1"
     inkscape:menu="Color"
     inkscape:menu-tooltip="Invert colors"
     color-interpolation-filters="sRGB"><feColorMatrix
       id="feColorMatrix2889"
       type="saturate"
       values="1"
       result="fbSourceGraphic" /><feColorMatrix
       id="feColorMatrix2891"
       in="fbSourceGraphic"
       values="-1 0 0 0 1 0 -1 0 0 1 0 0 -1 0 1 0 0 0 1 0 " /></filter><filter
     id="filter2893"
     inkscape:label="Invert"
     x="0"
     y="0"
     width="1"
     height="1"
     inkscape:menu="Color"
     inkscape:menu-tooltip="Invert colors"
     color-interpolation-filters="sRGB"><feColorMatrix
       id="feColorMatrix2895"
       type="saturate"
       values="1"
       result="fbSourceGraphic" /><feColorMatrix
       id="feColorMatrix2897"
       in="fbSourceGraphic"
       values="-1 0 0 0 1 0 -1 0 0 1 0 0 -1 0 1 0 0 0 1 0 " /></filter><filter
     id="filter2899"
     inkscape:label="Invert"
     x="0"
     y="0"
     width="1"
     height="1"
     inkscape:menu="Color"
     inkscape:menu-tooltip="Invert colors"
     color-interpolation-filters="sRGB"><feColorMatrix
       id="feColorMatrix2901"
       type="saturate"
       values="1"
       result="fbSourceGraphic" /><feColorMatrix
       id="feColorMatrix2903"
       in="fbSourceGraphic"
       values="-1 0 0 0 1 0 -1 0 0 1 0 0 -1 0 1 0 0 0 1 0 " /></filter><filter
     id="filter2905"
     inkscape:label="Invert"
     x="0"
     y="0"
     width="1"
     height="1"
     inkscape:menu="Color"
     inkscape:menu-tooltip="Invert colors"
     color-interpolation-filters="sRGB"><feColorMatrix
       id="feColorMatrix2907"
       type="saturate"
       values="1"
       result="fbSourceGraphic" /><feColorMatrix
       id="feColorMatrix2909"
       in="fbSourceGraphic"
       values="-1 0 0 0 1 0 -1 0 0 1 0 0 -1 0 1 0 0 0 1 0 " /></filter><filter
     id="filter2911"
     inkscape:label="Invert"
     x="0"
     y="0"
     width="1"
     height="1"
     inkscape:menu="Color"
     inkscape:menu-tooltip="Invert colors"
     color-interpolation-filters="sRGB"><feColorMatrix
       id="feColorMatrix2913"
       type="saturate"
       values="1"
       result="fbSourceGraphic" /><feColorMatrix
       id="feColorMatrix2915"
       in="fbSourceGraphic"
       values="-1 0 0 0 1 0 -1 0 0 1 0 0 -1 0 1 0 0 0 1 0 " /></filter><filter
     id="filter2917"
     inkscape:label="Invert"
     x="0"
     y="0"
     width="1"
     height="1"
     inkscape:menu="Color"
     inkscape:menu-tooltip="Invert colors"
     color-interpolation-filters="sRGB"><feColorMatrix
       id="feColorMatrix2919"
       type="saturate"
       values="1"
       result="fbSourceGraphic" /><feColorMatrix
       id="feColorMatrix2921"
       in="fbSourceGraphic"
       values="-1 0 0 0 1 0 -1 0 0 1 0 0 -1 0 1 0 0 0 1 0 " /></filter><filter
     id="filter2923"
     inkscape:label="Invert"
     x="0"
     y="0"
     width="1"
     height="1"
     inkscape:menu="Color"
     inkscape:menu-tooltip="Invert colors"
     color-interpolation-filters="sRGB"><feColorMatrix
       id="feColorMatrix2925"
       type="saturate"
       values="1"
       result="fbSourceGraphic" /><feColorMatrix
       id="feColorMatrix2927"
       in="fbSourceGraphic"
       values="-1 0 0 0 1 0 -1 0 0 1 0 0 -1 0 1 0 0 0 1 0 " /></filter><filter
     id="filter2929"
     inkscape:label="Invert"
     x="0"
     y="0"
     width="1"
     height="1"
     inkscape:menu="Color"
     inkscape:menu-tooltip="Invert colors"
     color-interpolation-filters="sRGB"><feColorMatrix
       id="feColorMatrix2931"
       type="saturate"
       values="1"
       result="fbSourceGraphic" /><feColorMatrix
       id="feColorMatrix2933"
       in="fbSourceGraphic"
       values="-1 0 0 0 1 0 -1 0 0 1 0 0 -1 0 1 0 0 0 1 0 " /></filter><filter
     id="filter2935"
     inkscape:label="Invert"
     x="0"
     y="0"
     width="1"
     height="1"
     inkscape:menu="Color"
     inkscape:menu-tooltip="Invert colors"
     color-interpolation-filters="sRGB"><feColorMatrix
       id="feColorMatrix2937"
       type="saturate"
       values="1"
       result="fbSourceGraphic" /><feColorMatrix
       id="feColorMatrix2939"
       in="fbSourceGraphic"
       values="-1 0 0 0 1 0 -1 0 0 1 0 0 -1 0 1 0 0 0 1 0 " /></filter><filter
     id="filter2941"
     inkscape:label="Invert"
     x="0"
     y="0"
     width="1"
     height="1"
     inkscape:menu="Color"
     inkscape:menu-tooltip="Invert colors"
     color-interpolation-filters="sRGB"><feColorMatrix
       id="feColorMatrix2943"
       type="saturate"
       values="1"
       result="fbSourceGraphic" /><feColorMatrix
       id="feColorMatrix2945"
       in="fbSourceGraphic"
       values="-1 0 0 0 1 0 -1 0 0 1 0 0 -1 0 1 0 0 0 1 0 " /></filter><filter
     id="filter2947"
     inkscape:label="Invert"
     x="0"
     y="0"
     width="1"
     height="1"
     inkscape:menu="Color"
     inkscape:menu-tooltip="Invert colors"
     color-interpolation-filters="sRGB"><feColorMatrix
       id="feColorMatrix2949"
       type="saturate"
       values="1"
       result="fbSourceGraphic" /><feColorMatrix
       id="feColorMatrix2951"
       in="fbSourceGraphic"
       values="-1 0 0 0 1 0 -1 0 0 1 0 0 -1 0 1 0 0 0 1 0 " /></filter><filter
     id="filter2953"
     inkscape:label="Invert"
     x="0"
     y="0"
     width="1"
     height="1"
     inkscape:menu="Color"
     inkscape:menu-tooltip="Invert colors"
     color-interpolation-filters="sRGB"><feColorMatrix
       id="feColorMatrix2955"
       type="saturate"
       values="1"
       result="fbSourceGraphic" /><feColorMatrix
       id="feColorMatrix2957"
       in="fbSourceGraphic"
       values="-1 0 0 0 1 0 -1 0 0 1 0 0 -1 0 1 0 0 0 1 0 " /></filter><filter
     id="filter2959"
     inkscape:label="Invert"
     x="0"
     y="0"
     width="1"
     height="1"
     inkscape:menu="Color"
     inkscape:menu-tooltip="Invert colors"
     color-interpolation-filters="sRGB"><feColorMatrix
       id="feColorMatrix2961"
       type="saturate"
       values="1"
       result="fbSourceGraphic" /><feColorMatrix
       id="feColorMatrix2963"
       in="fbSourceGraphic"
       values="-1 0 0 0 1 0 -1 0 0 1 0 0 -1 0 1 0 0 0 1 0 " /></filter><filter
     id="filter2965"
     inkscape:label="Invert"
     x="0"
     y="0"
     width="1"
     height="1"
     inkscape:menu="Color"
     inkscape:menu-tooltip="Invert colors"
     color-interpolation-filters="sRGB"><feColorMatrix
       id="feColorMatrix2967"
       type="saturate"
       values="1"
       result="fbSourceGraphic" /><feColorMatrix
       id="feColorMatrix2969"
       in="fbSourceGraphic"
       values="-1 0 0 0 1 0 -1 0 0 1 0 0 -1 0 1 0 0 0 1 0 " /></filter><filter
     id="filter2971"
     inkscape:label="Invert"
     x="0"
     y="0"
     width="1"
     height="1"
     inkscape:menu="Color"
     inkscape:menu-tooltip="Invert colors"
     color-interpolation-filters="sRGB"><feColorMatrix
       id="feColorMatrix2973"
       type="saturate"
       values="1"
       result="fbSourceGraphic" /><feColorMatrix
       id="feColorMatrix2975"
       in="fbSourceGraphic"
       values="-1 0 0 0 1 0 -1 0 0 1 0 0 -1 0 1 0 0 0 1 0 " /></filter><filter
     id="filter2977"
     inkscape:label="Invert"
     x="0"
     y="0"
     width="1"
     height="1"
     inkscape:menu="Color"
     inkscape:menu-tooltip="Invert colors"
     color-interpolation-filters="sRGB"><feColorMatrix
       id="feColorMatrix2979"
       type="saturate"
       values="1"
       result="fbSourceGraphic" /><feColorMatrix
       id="feColorMatrix2981"
       in="fbSourceGraphic"
       values="-1 0 0 0 1 0 -1 0 0 1 0 0 -1 0 1 0 0 0 1 0 " /></filter><filter
     id="filter2983"
     inkscape:label="Invert"
     x="0"
     y="0"
     width="1"
     height="1"
     inkscape:menu="Color"
     inkscape:menu-tooltip="Invert colors"
     color-interpolation-filters="sRGB"><feColorMatrix
       id="feColorMatrix2985"
       type="saturate"
       values="1"
       result="fbSourceGraphic" /><feColorMatrix
       id="feColorMatrix2987"
       in="fbSourceGraphic"
       values="-1 0 0 0 1 0 -1 0 0 1 0 0 -1 0 1 0 0 0 1 0 " /></filter><filter
     id="filter2989"
     inkscape:label="Invert"
     x="0"
     y="0"
     width="1"
     height="1"
     inkscape:menu="Color"
     inkscape:menu-tooltip="Invert colors"
     color-interpolation-filters="sRGB"><feColorMatrix
       id="feColorMatrix2991"
       type="saturate"
       values="1"
       result="fbSourceGraphic" /><feColorMatrix
       id="feColorMatrix2993"
       in="fbSourceGraphic"
       values="-1 0 0 0 1 0 -1 0 0 1 0 0 -1 0 1 0 0 0 1 0 " /></filter><filter
     id="filter2995"
     inkscape:label="Invert"
     x="0"
     y="0"
     width="1"
     height="1"
     inkscape:menu="Color"
     inkscape:menu-tooltip="Invert colors"
     color-interpolation-filters="sRGB"><feColorMatrix
       id="feColorMatrix2997"
       type="saturate"
       values="1"
       result="fbSourceGraphic" /><feColorMatrix
       id="feColorMatrix2999"
       in="fbSourceGraphic"
       values="-1 0 0 0 1 0 -1 0 0 1 0 0 -1 0 1 0 0 0 1 0 " /></filter><filter
     id="filter3001"
     inkscape:label="Invert"
     x="0"
     y="0"
     width="1"
     height="1"
     inkscape:menu="Color"
     inkscape:menu-tooltip="Invert colors"
     color-interpolation-filters="sRGB"><feColorMatrix
       id="feColorMatrix3003"
       type="saturate"
       values="1"
       result="fbSourceGraphic" /><feColorMatrix
       id="feColorMatrix3005"
       in="fbSourceGraphic"
       values="-1 0 0 0 1 0 -1 0 0 1 0 0 -1 0 1 0 0 0 1 0 " /></filter><filter
     id="filter3007"
     inkscape:label="Invert"
     x="0"
     y="0"
     width="1"
     height="1"
     inkscape:menu="Color"
     inkscape:menu-tooltip="Invert colors"
     color-interpolation-filters="sRGB"><feColorMatrix
       id="feColorMatrix3009"
       type="saturate"
       values="1"
       result="fbSourceGraphic" /><feColorMatrix
       id="feColorMatrix3011"
       in="fbSourceGraphic"
       values="-1 0 0 0 1 0 -1 0 0 1 0 0 -1 0 1 0 0 0 1 0 " /></filter><filter
     id="filter3013"
     inkscape:label="Invert"
     x="0"
     y="0"
     width="1"
     height="1"
     inkscape:menu="Color"
     inkscape:menu-tooltip="Invert colors"
     color-interpolation-filters="sRGB"><feColorMatrix
       id="feColorMatrix3015"
       type="saturate"
       values="1"
       result="fbSourceGraphic" /><feColorMatrix
       id="feColorMatrix3017"
       in="fbSourceGraphic"
       values="-1 0 0 0 1 0 -1 0 0 1 0 0 -1 0 1 0 0 0 1 0 " /></filter><filter
     id="filter3019"
     inkscape:label="Invert"
     x="0"
     y="0"
     width="1"
     height="1"
     inkscape:menu="Color"
     inkscape:menu-tooltip="Invert colors"
     color-interpolation-filters="sRGB"><feColorMatrix
       id="feColorMatrix3021"
       type="saturate"
       values="1"
       result="fbSourceGraphic" /><feColorMatrix
       id="feColorMatrix3023"
       in="fbSourceGraphic"
       values="-1 0 0 0 1 0 -1 0 0 1 0 0 -1 0 1 0 0 0 1 0 " /></filter><filter
     id="filter3025"
     inkscape:label="Invert"
     x="0"
     y="0"
     width="1"
     height="1"
     inkscape:menu="Color"
     inkscape:menu-tooltip="Invert colors"
     color-interpolation-filters="sRGB"><feColorMatrix
       id="feColorMatrix3027"
       type="saturate"
       values="1"
       result="fbSourceGraphic" /><feColorMatrix
       id="feColorMatrix3029"
       in="fbSourceGraphic"
       values="-1 0 0 0 1 0 -1 0 0 1 0 0 -1 0 1 0 0 0 1 0 " /></filter><filter
     id="filter3031"
     inkscape:label="Invert"
     x="0"
     y="0"
     width="1"
     height="1"
     inkscape:menu="Color"
     inkscape:menu-tooltip="Invert colors"
     color-interpolation-filters="sRGB"><feColorMatrix
       id="feColorMatrix3033"
       type="saturate"
       values="1"
       result="fbSourceGraphic" /><feColorMatrix
       id="feColorMatrix3035"
       in="fbSourceGraphic"
       values="-1 0 0 0 1 0 -1 0 0 1 0 0 -1 0 1 0 0 0 1 0 " /></filter><filter
     id="filter3037"
     inkscape:label="Invert"
     x="0"
     y="0"
     width="1"
     height="1"
     inkscape:menu="Color"
     inkscape:menu-tooltip="Invert colors"
     color-interpolation-filters="sRGB"><feColorMatrix
       id="feColorMatrix3039"
       type="saturate"
       values="1"
       result="fbSourceGraphic" /><feColorMatrix
       id="feColorMatrix3041"
       in="fbSourceGraphic"
       values="-1 0 0 0 1 0 -1 0 0 1 0 0 -1 0 1 0 0 0 1 0 " /></filter><filter
     id="filter3043"
     inkscape:label="Invert"
     x="0"
     y="0"
     width="1"
     height="1"
     inkscape:menu="Color"
     inkscape:menu-tooltip="Invert colors"
     color-interpolation-filters="sRGB"><feColorMatrix
       id="feColorMatrix3045"
       type="saturate"
       values="1"
       result="fbSourceGraphic" /><feColorMatrix
       id="feColorMatrix3047"
       in="fbSourceGraphic"
       values="-1 0 0 0 1 0 -1 0 0 1 0 0 -1 0 1 0 0 0 1 0 " /></filter></defs><sodipodi:namedview
   pagecolor="#710000"
   bordercolor="#666666"
   borderopacity="1"
   objecttolerance="10"
   gridtolerance="10"
   guidetolerance="10"
   inkscape:pageopacity="1"
   inkscape:pageshadow="2"
   inkscape:window-width="1018"
   inkscape:window-height="692"
   id="namedview71"
   showgrid="false"
   inkscape:zoom="3.1440466"
   inkscape:cx="6.1305334"
   inkscape:cy="67.030966"
   inkscape:window-x="0"
   inkscape:window-y="25"
   inkscape:window-maximized="0"
   inkscape:current-layer="Layer_1" />
<path
   style="fill:#848484;filter:url(#filter2845)"
   d="M 76.597602,51.708266 C 76.441488,48.132361 75.92573,44.523279 74.60195,41.194536 73.351375,38.050656 71.448061,35.054433 69.162088,32.622624 66.81927,30.129953 64.21691,28.068164 61.147871,26.64605 58.055541,25.21211 54.758293,24.27278 51.36954,24.0709 c -6.377101,-0.381267 -12.877872,1.838568 -17.885163,5.943118 -4.766049,3.907575 -8.180591,9.535469 -9.520452,15.690277 -1.456879,6.693253 -0.374895,14.133755 3.065156,20.014869 0.864034,1.476917 1.757737,2.938828 2.895455,4.206647 1.12219,1.25023 2.318139,2.46354 3.610308,3.523137 2.577128,2.113119 5.519999,3.711456 8.658914,4.708173 6.224592,1.97671 13.030103,1.499697 18.938862,-1.339919 5.458719,-2.624757 10.221718,-7.367251 12.795794,-13.042732 0.81939,-1.806846 1.398371,-3.73136 1.869208,-5.664234 0.517144,-2.120338 0.704869,-4.221361 0.79998,-6.40197"
   id="path3" />
<path
   style="fill:#848484;filter:url(#filter2851)"
   d="m 76.531052,51.639043 c 0,6.700471 -2.380529,13.304321 -6.641079,18.336955 -2.149547,2.539677 -4.88889,4.878331 -7.822056,6.35265 -3.062105,1.540066 -6.308887,2.563609 -9.697085,2.910849 -6.617789,0.679188 -13.470162,-1.435379 -18.709822,-5.693079 -4.750521,-3.861712 -8.370256,-9.622559 -9.626654,-15.772462 -0.694887,-3.401137 -0.930583,-7.185273 -0.324429,-10.61957 0.595896,-3.377204 1.703389,-6.822462 3.45669,-9.740529 1.726681,-2.873357 3.859868,-5.55291 6.487184,-7.580664 1.321006,-1.019219 2.710226,-1.963453 4.145476,-2.799533 1.474347,-0.859146 3.091776,-1.395867 4.706432,-1.894802 6.40372,-1.978443 13.620452,-1.354051 19.542798,1.897687 1.431368,0.786475 2.86218,1.65082 4.146862,2.680705 1.28995,1.033637 2.487009,2.30059 3.579805,3.553125 2.191695,2.511699 3.83214,5.346411 4.97679,8.515384 0.976613,2.70695 1.739159,5.723649 1.778257,8.635365 0.005,0.373477 0.0055,0.747544 -0.0011,1.121307 -0.0039,0.203899 -1.457987,0.09748 -1.696179,0.09748 -1.654586,0 -3.309172,0 -4.96348,0 -6.635811,0 -13.27079,0 -19.907157,0 8.8569,-8.66e-4 17.711858,-8.66e-4 26.568756,-8.66e-4"
   id="path5" />
<path
   style="fill:none;stroke:#010101;stroke-width:0.06792653000000000;stroke-linecap:square;stroke-miterlimit:10;filter:url(#filter2857)"
   d="m 23.362099,51.639043 c 0,6.700471 2.380529,13.304321 6.64108,18.336955 2.149546,2.539677 4.888889,4.878331 7.822056,6.35265 3.062105,1.540066 6.308886,2.563609 9.697085,2.910849 6.617788,0.679188 13.470162,-1.435379 18.709821,-5.693079 4.750521,-3.861712 8.370257,-9.622559 9.626654,-15.772462 0.694888,-3.401137 0.930583,-7.185273 0.324429,-10.61957 -0.595896,-3.377204 -1.703389,-6.822462 -3.45669,-9.740529 -1.72668,-2.873357 -3.859867,-5.55291 -6.487184,-7.580664 -1.321006,-1.019219 -2.710226,-1.963453 -4.145475,-2.799533 -1.474347,-0.859146 -3.091776,-1.395867 -4.706433,-1.894802 -6.40372,-1.978443 -13.620452,-1.354051 -19.542797,1.897687 -1.431368,0.786475 -2.862181,1.65082 -4.146863,2.680705 -1.289949,1.033637 -2.487008,2.30059 -3.579805,3.553125 -2.191695,2.511699 -3.832139,5.346411 -4.976789,8.515384 -1.14576,3.170706 -1.779089,6.458785 -1.779089,9.853284"
   id="path7" />
<path
   style="fill:#ffffff;fill-opacity:1;stroke:#ffffff;stroke-width:0.06792653000000000;stroke-linecap:square;stroke-miterlimit:10;filter:url(#filter2863)"
   d="m 69.937112,51.708266 c -0.177189,-3.51189 -0.851279,-6.847841 -2.5042,-9.944134 -1.523982,-2.854901 -3.660219,-5.339202 -6.255925,-7.181521 -5.409084,-3.839219 -12.592541,-4.775377 -18.668228,-2.123803 -2.989179,1.304445 -5.867166,3.353844 -7.918274,5.98379 -2.028649,2.601683 -3.453916,5.764018 -4.129671,9.029023 -0.720675,3.479873 -0.514371,6.962337 0.483038,10.361749 0.483593,1.649373 1.113871,3.248568 2.008407,4.704135 0.42148,0.686683 0.858211,1.370489 1.353726,2.001518 0.50134,0.638524 0.999351,1.37424 1.598851,1.914419 1.247524,1.125059 2.499486,2.235985 3.924753,3.114463 1.432754,0.8828 2.971433,1.582177 4.569452,2.070731 3.246225,0.991535 6.828804,1.115259 10.114406,0.247743 1.675105,-0.442128 3.244561,-0.978555 4.763275,-1.850109 1.413622,-0.811273 2.653105,-1.686293 3.862641,-2.801544 2.420459,-2.231662 4.339579,-5.072725 5.477019,-8.227852 0.839078,-2.330007 1.19484,-4.824402 1.32073,-7.298608"
   id="path9" />
<path
   style="fill:#ffffff;fill-opacity:0.01739131000000000;filter:url(#filter2869)"
   d="m 69.870286,51.708266 c -0.213791,3.44641 -0.791385,6.774009 -2.36833,9.849541 -1.452442,2.834998 -3.702922,5.308337 -6.208231,7.176322 -1.308528,0.975089 -2.77622,1.686293 -4.261105,2.319627 -1.542284,0.657274 -3.046023,0.94452 -4.688963,1.180141 -1.655694,0.237648 -3.347991,0.239381 -5.005349,0.01152 -1.605229,-0.220623 -3.318877,-0.602184 -4.807366,-1.276467 -2.944536,-1.333291 -5.583498,-3.213389 -7.653186,-5.77296 -2.079116,-2.570827 -3.64996,-5.640302 -4.333756,-8.938762 -1.35844,-6.552806 0.345503,-13.68674 4.746639,-18.634875 4.205648,-4.728648 10.530063,-7.305531 16.70613,-6.550206 1.625192,0.198709 3.195759,0.453661 4.713364,1.109774 1.449946,0.626705 2.886027,1.308197 4.215629,2.182065 2.676675,1.758678 4.764387,4.349114 6.380428,7.150943 1.802104,3.121672 2.342818,6.615678 2.564096,10.193315 -6.635535,0 -13.270792,0 -19.906326,0 6.635534,0 13.271068,0 19.906326,0"
   id="path11" />
<path
   style="fill:none;stroke:#010101;stroke-width:0.06792653000000000;stroke-linecap:square;stroke-miterlimit:10;filter:url(#filter2875)"
   d="m 69.870286,51.708266 c -0.213791,3.44641 -0.791385,6.774009 -2.36833,9.849541 -1.452442,2.834998 -3.702922,5.308337 -6.208231,7.176322 -1.308528,0.975089 -2.77622,1.686293 -4.261105,2.319627 -1.542284,0.657274 -3.046023,0.94452 -4.688963,1.180141 -1.655694,0.237648 -3.347991,0.239381 -5.005349,0.01152 -1.605229,-0.220623 -3.318877,-0.602184 -4.807366,-1.276467 -2.944536,-1.333291 -5.583498,-3.213389 -7.653186,-5.77296 -2.079116,-2.570827 -3.64996,-5.640302 -4.333756,-8.938762 -1.35844,-6.552806 0.345503,-13.68674 4.746639,-18.634875 4.205648,-4.728648 10.530063,-7.305531 16.70613,-6.550206 1.625192,0.198709 3.195759,0.453661 4.713364,1.109774 1.449946,0.626705 2.886027,1.308197 4.215629,2.182065 2.676675,1.758678 4.764387,4.349114 6.380428,7.150943 1.802104,3.121672 2.342818,6.615678 2.564096,10.193315"
   id="path13" />
<path
   style="fill:#010101;filter:url(#filter2881)"
   d="m 50.023577,51.154527 c -0.02163,-14.822466 -0.04464,-29.644931 -0.06655,-44.4676916 1.306033,7.4725186 2.613175,14.9450376 3.91893,22.4178506 0.652185,3.727893 1.303539,7.456082 1.955723,11.184556 0.155836,0.891448 0.31195,1.78261 0.467509,2.674648 0.07847,0.445291 0.155837,0.891448 0.234032,1.336748 0.09539,0.543636 0.0055,0.562091 -0.343284,0.925483 -1.255289,1.305884 -2.511409,2.612063 -3.767252,3.917955 -0.821609,0.854537 -1.643217,1.709653 -2.465103,2.56419 0.02191,-0.184872 0.04381,-0.368868 0.06599,-0.553739"
   id="path15" />
<path
   style="fill:none;stroke:#010101;stroke-width:0.06792653000000000;stroke-linecap:square;stroke-miterlimit:10;filter:url(#filter2887)"
   d="m 50.023577,51.154527 c -0.02163,-14.822466 -0.04464,-29.644931 -0.06655,-44.4676916 1.306033,7.4725186 2.613175,14.9450376 3.91893,22.4178506 0.652185,3.727893 1.303539,7.456082 1.955723,11.184556 0.155836,0.891448 0.31195,1.78261 0.467509,2.674648 0.07847,0.445291 0.155837,0.891448 0.234032,1.336748 0.09539,0.543636 0.0055,0.562091 -0.343284,0.925483 -1.255289,1.305884 -2.511409,2.612063 -3.767252,3.917955 -0.821609,0.854537 -1.643217,1.709653 -2.465103,2.56419"
   id="path17" />
<path
   style="fill:#010101;filter:url(#filter2893)"
   d="m 50.023577,51.154527 c 14.430137,0.184871 28.859721,0.369448 43.289581,0.553739 -7.198154,1.345109 -14.396308,2.690218 -21.595017,4.035336 -3.591175,0.670818 -7.181794,1.342224 -10.773801,2.013051 -0.859042,0.16035 -1.717252,0.320414 -2.576295,0.481059 -0.429244,0.07989 -0.858765,0.160922 -1.288009,0.241097 -0.524354,0.09806 -0.544873,0.0026 -0.897308,-0.359926 -1.266103,-1.303865 -2.533038,-2.608605 -3.799141,-3.911898 -0.542101,-0.558349 -1.083647,-1.116698 -1.625747,-1.675333 -0.23431,-0.239944 -0.521582,-0.472117 -0.710693,-0.752439 -0.123671,-0.182558 -0.04797,-0.422797 -0.02358,-0.624686"
   id="path19" />
<path
   style="fill:none;stroke:#010101;stroke-width:0.06792653000000000;stroke-linecap:square;stroke-miterlimit:10;filter:url(#filter2899)"
   d="m 50.023577,51.154527 c 14.430137,0.184871 28.859721,0.369448 43.289581,0.553739 -7.198154,1.345109 -14.396308,2.690218 -21.595017,4.035336 -3.591175,0.670818 -7.181794,1.342224 -10.773801,2.013051 -0.859042,0.16035 -1.717252,0.320414 -2.576295,0.481059 -0.429244,0.07989 -0.858765,0.160922 -1.288009,0.241097 -0.524354,0.09806 -0.544873,0.0026 -0.897308,-0.359926 -1.266103,-1.303865 -2.533038,-2.608605 -3.799141,-3.911898 -0.808853,-0.833767 -1.617984,-1.664952 -2.426559,-2.498719"
   id="path21" />
<path
   style="fill:#010101;filter:url(#filter2905)"
   d="m 50.023577,51.154527 c -14.42986,0.184871 -28.860275,0.370028 -43.2901348,0.553739 7.1881718,-1.361841 14.3763438,-2.723682 21.5645148,-4.084943 3.581192,-0.678901 7.162661,-1.356936 10.743853,-2.035543 0.845733,-0.160065 1.691465,-0.320423 2.53692,-0.480773 0.422866,-0.07963 0.845733,-0.160065 1.268599,-0.239954 0.457804,-0.08709 0.46446,-0.07148 0.76615,0.243991 1.263331,1.313968 2.526661,2.627642 3.789991,3.94161 0.851002,0.885106 1.702556,1.770792 2.553558,2.655612 0.02247,-0.184872 0.04436,-0.368868 0.06654,-0.553739"
   id="path23" />
<path
   style="fill:none;stroke:#010101;stroke-width:0.06792653000000000;stroke-linecap:square;stroke-miterlimit:10;filter:url(#filter2911)"
   d="m 50.023577,51.154527 c -14.42986,0.184871 -28.860275,0.370028 -43.2901348,0.553739 7.1881718,-1.361841 14.3763438,-2.723682 21.5645148,-4.084943 3.581192,-0.678901 7.162661,-1.356936 10.743853,-2.035543 0.845733,-0.160065 1.691465,-0.320423 2.53692,-0.480773 0.422866,-0.07963 0.845733,-0.160065 1.268599,-0.239954 0.457804,-0.08709 0.46446,-0.07148 0.76615,0.243991 1.263331,1.313968 2.526661,2.627642 3.789991,3.94161 0.851002,0.885106 1.702556,1.770792 2.553558,2.655612"
   id="path25" />
<path
   style="fill:#010101;filter:url(#filter2917)"
   d="m 50.023577,51.154527 c -1.238374,1.364146 -2.476748,2.728872 -3.715122,4.093304 -0.594509,0.654969 -1.189016,1.309064 -1.783249,1.964605 -0.285607,0.314644 -0.571769,0.629582 -0.857378,0.944234 -0.373786,0.411836 -0.369627,0.414722 -0.262038,0.973356 0.71291,3.714923 1.426099,7.429836 2.13901,11.145045 1.428039,7.440797 2.855803,14.881299 4.28412,22.321229 0.0427,0.223803 0.08569,0.447605 0.128385,0.670255 0,-7.017428 0,-14.034848 0,-21.052267 0,-3.560334 0,-7.120374 0,-10.681003 0,-1.71311 0,-3.427668 0,-5.140492 -2.77e-4,-1.725805 -0.139754,-3.523709 0.06627,-5.238266"
   id="path27" />
<path
   style="fill:none;stroke:#010101;stroke-width:0.06792653000000000;stroke-linecap:square;stroke-miterlimit:10;filter:url(#filter2923)"
   d="m 50.023577,51.154527 c -1.238374,1.364146 -2.476748,2.728872 -3.715122,4.093304 -0.594509,0.654969 -1.189016,1.309064 -1.783249,1.964605 -0.285607,0.314644 -0.571769,0.629582 -0.857378,0.944234 -0.373786,0.411836 -0.369627,0.414722 -0.262038,0.973356 0.71291,3.714923 1.426099,7.429836 2.13901,11.145045 1.428039,7.440797 2.855803,14.881299 4.28412,22.321229 0.0427,0.223803 0.08569,0.447605 0.128385,0.670255 0,-13.852862 0,-27.705437 0,-41.55887"
   id="path29" />
<path
   style="fill:#ffffff;filter:url(#filter2929)"
   d="m 56.550137,44.435609 c 2.242438,-2.193018 4.4846,-4.386321 6.727316,-6.579052 -1.680928,0.856269 -3.361578,1.712825 -5.042507,2.569094 -0.362971,0.184871 -0.725388,0.369448 -1.088083,0.554311 -0.356316,0.181405 -0.530177,0.193519 -0.530177,0.608821 0,1.064206 0,2.128699 0,3.1932 -0.02218,-0.115944 -0.04436,-0.230726 -0.06654,-0.346374"
   id="path31" />
<path
   style="fill:none;stroke:#010101;stroke-width:0.06792653000000000;stroke-linecap:square;stroke-miterlimit:10;filter:url(#filter2935)"
   d="m 56.550137,44.435609 c 2.242438,-2.193018 4.4846,-4.386321 6.727316,-6.579052 -1.680928,0.856269 -3.361578,1.712825 -5.042507,2.569094 -0.362971,0.184871 -0.725388,0.369448 -1.088083,0.554311 -0.356316,0.181405 -0.530177,0.193519 -0.530177,0.608821 0,1.064206 0,2.128699 0,3.1932"
   id="path33" />
<path
   style="fill:#010101;filter:url(#filter2941)"
   d="m 56.550137,44.435609 c 2.242438,-2.193018 4.4846,-4.386321 6.727316,-6.579052 -0.930583,1.934903 -1.861166,3.870082 -2.791472,5.804404 -0.130602,0.271381 -0.311395,0.938169 -0.558182,1.101119 -0.208246,0.137856 -0.745077,0.01958 -0.973009,0.01958 -0.502172,0 -1.004065,0 -1.50679,0 -0.24041,0 -0.48082,0 -0.722062,0 -0.18717,0 -0.150569,-0.215441 -0.175801,-0.346088"
   id="path35" />
<path
   style="fill:none;stroke:#010101;stroke-width:0.06792653000000000;stroke-linecap:square;stroke-miterlimit:10;filter:url(#filter2947)"
   d="m 56.550137,44.435609 c 2.242438,-2.193018 4.4846,-4.386321 6.727316,-6.579052 -0.840187,1.747432 -1.680928,3.495158 -2.521114,5.24259 -0.181348,0.377229 -0.363249,0.754753 -0.544597,1.131982 -0.17996,0.374058 -0.19327,0.550854 -0.597557,0.550854 -0.999075,0 -1.998148,0 -2.997499,0"
   id="path37" />
<path
   style="fill:#ffffff;filter:url(#filter2953)"
   d="m 43.230543,44.781688 c -2.197795,-2.308371 -4.395868,-4.617037 -6.593663,-6.925417 0.828263,1.722339 1.656248,3.444105 2.484512,5.166738 0.184952,0.385019 0.370182,0.770324 0.555411,1.155343 0.159718,0.332241 0.184952,0.603336 0.562898,0.603336 0.996854,0 1.993986,0 2.990842,0"
   id="path39" />
<path
   style="fill:none;stroke:#010101;stroke-width:0.06792653000000000;stroke-linecap:square;stroke-miterlimit:10;filter:url(#filter2959)"
   d="m 43.230543,44.781688 c -2.197795,-2.308371 -4.395868,-4.617037 -6.593663,-6.925417 1.109989,2.30838 2.219978,4.616751 3.329967,6.925417"
   id="path41" />
<path
   style="fill:#010101;filter:url(#filter2965)"
   d="m 43.230543,44.781688 c -2.197795,-2.308371 -4.395868,-4.617037 -6.593663,-6.925417 1.680651,0.856269 3.361578,1.712825 5.042229,2.569094 0.362695,0.184863 0.725667,0.369448 1.088361,0.554311 0.356871,0.181986 0.531009,0.192072 0.523245,0.608821 -0.02024,1.064492 -0.04021,2.128985 -0.06017,3.193191"
   id="path43" />
<path
   style="fill:none;stroke:#010101;stroke-width:0.06792653000000000;stroke-linecap:square;stroke-miterlimit:10;filter:url(#filter2971)"
   d="m 43.230543,44.781688 c -2.197795,-2.308371 -4.395868,-4.617037 -6.593663,-6.925417 2.219978,1.131402 4.439956,2.261946 6.660212,3.393347"
   id="path45" />
<path
   style="fill:#ffffff;filter:url(#filter2977)"
   d="m 43.230543,58.56504 c -2.197795,2.309533 -4.395868,4.617912 -6.593663,6.926864 1.179866,-0.601031 2.360009,-1.202634 3.54043,-1.803674 0.589795,-0.301092 1.179865,-0.601318 1.769938,-0.902124 0.321101,-0.163521 1.386446,-0.478745 1.367037,-0.916827 -0.01719,-0.39079 0.181901,-3.269337 -0.08375,-3.304239"
   id="path47" />
<path
   style="fill:none;stroke:#010101;stroke-width:0.06792653000000000;stroke-linecap:square;stroke-miterlimit:10;filter:url(#filter2983)"
   d="m 43.230543,58.56504 c -2.197795,2.309533 -4.395868,4.617912 -6.593663,6.926864 1.680651,-0.855975 3.361578,-1.712539 5.042229,-2.568513 0.362695,-0.185158 0.725667,-0.369448 1.088361,-0.554606 0.355762,-0.181405 0.529622,-0.193805 0.529622,-0.608526 0,-1.064778 0,-2.129851 0,-3.194352"
   id="path49" />
<path
   style="fill:#010101;filter:url(#filter2989)"
   d="m 43.230543,58.56504 c -2.197795,2.309533 -4.395868,4.617912 -6.593663,6.926864 0.827986,-1.722338 1.656248,-3.444391 2.484512,-5.167605 0.184952,-0.385304 0.370182,-0.770323 0.555411,-1.155342 0.159718,-0.332233 0.184952,-0.603917 0.562898,-0.603917 0.996854,0 1.993986,0 2.990842,0"
   id="path51" />
<path
   style="fill:none;stroke:#010101;stroke-width:0.06792653000000000;stroke-linecap:square;stroke-miterlimit:10;filter:url(#filter2995)"
   d="m 43.230543,58.56504 c -2.197795,2.309533 -4.395868,4.617912 -6.593663,6.926864 1.109989,-2.308952 2.219978,-4.617331 3.329967,-6.926864"
   id="path53" />
<path
   style="fill:#ffffff;filter:url(#filter3001)"
   d="m 56.550137,58.56504 c 2.242438,2.309533 4.4846,4.617912 6.727316,6.926864 C 62.437266,63.743892 61.596525,61.99646 60.756339,60.248162 60.574991,59.870647 60.39309,59.493704 60.211742,59.115894 60.034,58.747312 60.020968,58.56504 59.620285,58.56504 c -1.022921,0 -2.045841,0 -3.070148,0"
   id="path55" />
<path
   style="fill:none;stroke:#010101;stroke-width:0.06792653000000000;stroke-linecap:square;stroke-miterlimit:10;filter:url(#filter3007)"
   d="m 56.550137,58.56504 c 2.242438,2.309533 4.4846,4.617912 6.727316,6.926864 -1.110543,-2.308952 -2.22081,-4.617331 -3.330522,-6.926864"
   id="path57" />
<path
   style="fill:#010101;filter:url(#filter3013)"
   d="m 56.550137,58.56504 c 2.242438,2.309533 4.4846,4.617912 6.727316,6.926864 C 61.596525,64.635929 59.915875,63.779365 58.234946,62.923391 57.871975,62.738233 57.509558,62.553943 57.146863,62.368785 56.791656,62.18796 56.61835,62.173828 56.609754,61.760259 56.590345,60.6949 56.570372,59.630408 56.55014,58.56504"
   id="path59" />
<path
   style="fill:none;stroke:#010101;stroke-width:0.06792653000000000;stroke-linecap:square;stroke-miterlimit:10;filter:url(#filter3019)"
   d="m 56.550137,58.56504 c 2.242438,2.309533 4.4846,4.617912 6.727316,6.926864 -2.22081,-1.131401 -4.440234,-2.261945 -6.660767,-3.393347"
   id="path61" />
<path
   style="fill:#ffffff;filter:url(#filter3025)"
   d="m 49.957028,51.500615 c 0,13.92178 0,27.844436 0,41.766226 1.418889,-7.394943 2.838887,-14.790172 4.2575,-22.185107 0.710416,-3.699638 1.421109,-7.399267 2.13097,-11.099476 0.08152,-0.426549 0.1636,-0.854537 0.245678,-1.281086 0.05324,-0.277445 -0.402347,-0.590651 -0.576208,-0.774941 -0.644975,-0.684378 -1.290504,-1.369336 -1.935757,-2.053714 -1.271926,-1.349147 -2.543575,-2.698589 -3.816333,-4.048317 -0.102319,-0.107573 -0.204085,-0.216012 -0.30585,-0.323585"
   id="path63" />
<path
   style="fill:#ffffff;filter:url(#filter3031)"
   d="m 49.957028,51.500615 c 14.452598,0.06897 28.904641,0.137856 43.35613,0.207651 -7.181794,-1.356365 -14.36442,-2.711274 -21.546769,-4.066773 -3.587569,-0.677454 -7.176525,-1.354632 -10.764372,-2.032086 -0.827431,-0.156312 -1.654863,-0.312625 -2.481462,-0.468365 -0.413716,-0.07816 -0.826876,-0.156313 -1.241702,-0.234183 -0.443386,-0.08396 -0.600887,-0.184863 -0.91866,0.133819 -1.26444,1.276467 -2.529155,2.55179 -3.793872,3.827685 -0.869857,0.877611 -1.738881,1.755508 -2.609293,2.632252"
   id="path65" />
<path
   style="fill:#ffffff;filter:url(#filter3037)"
   d="m 50.090126,51.500615 c -14.45232,0.06897 -28.904364,0.137856 -43.3566838,0.207651 7.1881718,1.348566 14.3763438,2.69657 21.5645148,4.043698 3.581192,0.671398 7.162661,1.343376 10.743853,2.014783 0.845733,0.158912 1.691465,0.317243 2.53692,0.476155 0.422866,0.07902 0.845733,0.158617 1.268599,0.237354 0.453923,0.08509 0.459746,0.07408 0.758664,-0.236782 1.254734,-1.305884 2.510578,-2.611196 3.766144,-3.916508 0.906182,-0.94193 1.812363,-1.883564 2.717989,-2.826351"
   id="path67" />
<path
   style="fill:#ffffff;filter:url(#filter3043)"
   d="m 49.957028,51.500615 c 0,-14.938114 0,-29.875951 0,-44.8137796 -1.306033,7.4725186 -2.612897,14.9450376 -3.919208,22.4178506 -0.65163,3.727893 -1.303814,7.456082 -1.955445,11.184556 -0.155835,0.891448 -0.311673,1.78261 -0.467509,2.674648 -0.07791,0.445291 -0.155836,0.891448 -0.234032,1.336748 -0.09566,0.548254 -0.0014,0.564405 0.355762,0.924902 1.277195,1.28859 2.554944,2.576884 3.832139,3.866331 0.796374,0.802912 1.591918,1.606118 2.388293,2.408744"
   id="path69" />
</svg>