<?xml version="1.0" encoding="UTF-8" standalone="no"?>
<!-- Generator: Adobe Illustrator 14.0.0, SVG Export Plug-In . SVG Version: 6.00 Build 43363)  -->

<svg
   xmlns:dc="http://purl.org/dc/elements/1.1/"
   xmlns:cc="http://creativecommons.org/ns#"
   xmlns:rdf="http://www.w3.org/1999/02/22-rdf-syntax-ns#"
   xmlns:svg="http://www.w3.org/2000/svg"
   xmlns="http://www.w3.org/2000/svg"
   xmlns:xlink="http://www.w3.org/1999/xlink"
   xmlns:sodipodi="http://sodipodi.sourceforge.net/DTD/sodipodi-0.dtd"
   xmlns:inkscape="http://www.inkscape.org/namespaces/inkscape"
   version="1.1"
   id="Layer_1"
   x="0px"
   y="0px"
   width="100"
   height="100"
   viewBox="0 0 100 100"
   enable-background="new 0 0 360 359.998"
   xml:space="preserve"
   inkscape:version="0.47pre4 r22446"
   sodipodi:docname="defaultFavicon.svg"><metadata
   id="metadata52"><rdf:RDF><cc:Work
       rdf:about=""><dc:format>image/svg+xml</dc:format><dc:type
         rdf:resource="http://purl.org/dc/dcmitype/StillImage" /></cc:Work></rdf:RDF></metadata><defs
   id="defs50"><inkscape:perspective
     sodipodi:type="inkscape:persp3d"
     inkscape:vp_x="0 : 179.99899 : 1"
     inkscape:vp_y="0 : 1000 : 0"
     inkscape:vp_z="360 : 179.99899 : 1"
     inkscape:persp3d-origin="180 : 119.99933 : 1"
     id="perspective54" /><linearGradient
     inkscape:collect="always"
     xlink:href="#SVGID_1_"
     id="linearGradient2864"
     gradientUnits="userSpaceOnUse"
     gradientTransform="matrix(6.8182,0,0,-6.8182,-1679.8633,2666.5759)"
     x1="265.76169"
     y1="373.23831"
     x2="279.66339"
     y2="356.52869" /><radialGradient
     inkscape:collect="always"
     xlink:href="#SVGID_3_"
     id="radialGradient2866"
     gradientUnits="userSpaceOnUse"
     gradientTransform="matrix(2.6885222,0,0,-2.6885222,-683.37301,1290.7774)"
     cx="276.56641"
     cy="374.54199"
     r="22.5763" /></defs><sodipodi:namedview
   pagecolor="#363436"
   bordercolor="#666666"
   borderopacity="1"
   objecttolerance="10"
   gridtolerance="10"
   guidetolerance="10"
   inkscape:pageopacity="1"
   inkscape:pageshadow="2"
   inkscape:window-width="1248"
   inkscape:window-height="876"
   id="namedview48"
   showgrid="false"
   inkscape:zoom="6.39"
   inkscape:cx="50"
   inkscape:cy="50"
   inkscape:window-x="104"
   inkscape:window-y="202"
   inkscape:window-maximized="0"
   inkscape:current-layer="g2860" />
<linearGradient
   id="SVGID_1_"
   gradientUnits="userSpaceOnUse"
   x1="265.76169"
   y1="373.23831"
   x2="279.66339"
   y2="356.52869"
   gradientTransform="matrix(6.8182,0,0,-6.8182,-1679.8633,2666.5759)">
	<stop
   offset="0"
   style="stop-color:#DEE9F3"
   id="stop4" />
	<stop
   offset="1"
   style="stop-color:#235487"
   id="stop6" />
</linearGradient>

<radialGradient
   id="SVGID_2_"
   cx="276.32031"
   cy="376.37299"
   r="33.187801"
   gradientTransform="matrix(6.8182,0,0,-6.8182,-1679.8633,2666.5759)"
   gradientUnits="userSpaceOnUse">
	<stop
   offset="0"
   style="stop-color:#FFFFFF"
   id="stop11" />
	<stop
   offset="0.53"
   style="stop-color:#A2C2DD"
   id="stop13" />
	<stop
   offset="0.87"
   style="stop-color:#6C83BB"
   id="stop15" />
	<stop
   offset="1"
   style="stop-color:#003D6D"
   id="stop17" />
</radialGradient>

<radialGradient
   id="SVGID_3_"
   cx="276.56641"
   cy="374.54199"
   r="22.5763"
   gradientTransform="matrix(6.8182,0,0,-6.8182,-1679.8633,2666.5759)"
   gradientUnits="userSpaceOnUse">
	<stop
   offset="0"
   style="stop-color:#E6EEF4"
   id="stop22" />
	<stop
   offset="0.08"
   style="stop-color:#C6DCC1"
   id="stop24" />
	<stop
   offset="0.21"
   style="stop-color:#91C06F"
   id="stop26" />
	<stop
   offset="0.32"
   style="stop-color:#6BAB33"
   id="stop28" />
	<stop
   offset="0.4"
   style="stop-color:#539E0E"
   id="stop30" />
	<stop
   offset="0.44"
   style="stop-color:#4A9900"
   id="stop32" />
	<stop
   offset="0.55"
   style="stop-color:#398419"
   id="stop34" />
	<stop
   offset="0.71"
   style="stop-color:#22663B"
   id="stop36" />
	<stop
   offset="0.85"
   style="stop-color:#135550"
   id="stop38" />
	<stop
   offset="0.94"
   style="stop-color:#0E4E58"
   id="stop40" />
</radialGradient>
<g
   id="g2860"
   transform="translate(0,-259.998)"><circle
     id="circle8"
     r="126.802"
     cy="179.28"
     cx="180"
     sodipodi:cx="180"
     sodipodi:cy="179.28"
     sodipodi:rx="126.802"
     sodipodi:ry="126.802"
     style="fill:url(#linearGradient2864)"
     d="m 306.802,179.28 c 0,70.03081 -56.77119,126.802 -126.802,126.802 -70.03081,0 -126.802002,-56.77119 -126.802002,-126.802 0,-70.03081 56.771192,-126.802003 126.802002,-126.802003 70.03081,0 126.802,56.771193 126.802,126.802003 z"
     transform="matrix(0.39431554,0,0,0.39431554,-20.976797,239.30511)" /><path
     id="path42"
     d="m 74.230292,326.46501 -3.09064,3.09144 c 0,0 -1.86157,0 -1.95344,0.74762 -0.041,0.31821 -0.15536,1.70108 -0.45938,2.4069 -0.61789,0.43217 -1.36157,1.85368 -1.36157,1.85368 0,0 -0.38051,2.7539 1.66953,2.28821 2.04926,-0.46687 5.4735,-6.28657 5.4735,-6.28657 0,0 2.05162,-4.56578 -0.278,-4.10128 z m -71.2346763,-16.3842 -1.219618,-0.40812 c 0,0.10962 -0.0083,0.21845 -0.0083,0.32728 0,1.15614 0.05481,2.2965 0.134068,3.43015 0.01617,0.24014 0.03391,0.48501 0.05481,0.72476 0.09661,1.13286 0.222393,2.25745 0.396681,3.36863 0.0071,0.0446 0.01774,0.0931 0.02445,0.13959 0.17547,1.10132 0.395104,2.18333 0.6451,3.2602 0.03549,0.15931 0.07098,0.31585 0.109619,0.47594 0.270895,1.11591 0.575307,2.22433 0.924276,3.31067 0.0032,0.0114 0.0083,0.0233 0.01065,0.0347 0.03549,-0.39352 0.05323,-0.79691 0.03943,-1.21291 -0.09385,-2.87259 -0.556773,-2.5039 -0.556773,-2.5039 l 0.741707,-0.55836 2.505481,-3.80317 0,-2.78268 -2.319758,-1.94911 -1.481838,-1.85367 z M 34.083453,266.88078 c 0.611189,0.41916 1.533099,0.71134 2.074889,0.47909 0.542183,-0.23067 1.703048,-1.07096 1.703048,-1.07096 0,0 -0.703458,-0.0887 -1.403763,0.17942 -0.70267,0.27207 -1.867478,0.0386 -2.374174,0.41245 z m 63.217849,33.68638 c -0.18533,-0.94202 -0.40023,-1.87616 -0.63879,-2.79886 -0.0446,-0.17389 -0.10173,-0.34502 -0.14826,-0.51734 -0.20189,-0.74013 -0.42468,-1.47631 -0.65811,-2.20186 -0.0939,-0.28272 -0.1873,-0.56466 -0.28746,-0.8458 -0.22555,-0.64983 -0.46608,-1.29139 -0.71608,-1.93018 -0.0982,-0.24802 -0.19164,-0.50117 -0.29495,-0.74683 -0.35212,-0.8466 -0.7212,-1.68412 -1.11985,-2.50509 -0.0804,-0.1664 -0.16956,-0.32728 -0.25197,-0.4921 -0.32728,-0.66166 -0.67073,-1.31347 -1.02995,-1.95699 -0.15812,-0.2843 -0.32058,-0.56663 -0.48738,-0.84699 -0.31269,-0.53745 -0.63879,-1.06781 -0.97277,-1.59067 -0.16916,-0.26971 -0.3399,-0.53863 -0.51498,-0.80519 -0.47042,-0.70662 -0.95661,-1.40455 -1.46251,-2.08593 -0.12579,-0.16956 -0.25631,-0.33399 -0.38525,-0.50039 -0.44715,-0.58358 -0.90496,-1.15652 -1.37537,-1.71764 -0.22555,-0.26616 -0.45228,-0.52562 -0.68178,-0.78705 -0.38406,-0.4373 -0.77404,-0.86789 -1.17545,-1.29178 -0.24172,-0.2563 -0.48264,-0.513 -0.72751,-0.76458 -0.49211,-0.49841 -0.99249,-0.98224 -1.50313,-1.45817 -0.21175,-0.19716 -0.41916,-0.39511 -0.63367,-0.58714 -0.58674,-0.52917 -1.18728,-1.04218 -1.79965,-1.54059 -0.27879,-0.22594 -0.56348,-0.44361 -0.84266,-0.66482 -0.4436,-0.34502 -0.89628,-0.68532 -1.35329,-1.01457 -0.30401,-0.21924 -0.60645,-0.43848 -0.91165,-0.64983 -0.51459,-0.35489 -1.04218,-0.69715 -1.57175,-1.03272 -0.24132,-0.15496 -0.48146,-0.31624 -0.72475,-0.46647 -0.73697,-0.44834 -1.48696,-0.87262 -2.25036,-1.28231 -0.31663,-0.16956 -0.63839,-0.32926 -0.96134,-0.49211 -0.50433,-0.25631 -1.01023,-0.50472 -1.52008,-0.74368 -0.35331,-0.16246 -0.70701,-0.32413 -1.05993,-0.47909 -0.54178,-0.23541 -1.09067,-0.4582 -1.64035,-0.67271 -0.24842,-0.097 -0.49565,-0.19991 -0.74407,-0.29376 -0.50946,0.33399 -3.49521,2.02442 -3.49521,2.02442 0,0 -3.06936,-0.53233 -3.91201,-0.53233 -0.84068,0 -4.13479,-0.58871 -4.88281,-0.68059 -0.74999,-0.095 -3.51019,-0.46608 -4.34575,0.37066 -0.84068,0.84028 -4.117442,1.69871 -4.869008,1.79216 -0.741707,0.095 -2.287424,0.49487 -0.433747,2.78229 -0.274444,0.28076 -5.563398,3.96682 -5.563398,2.28743 0,-1.67584 1.179004,-4.67461 -0.479093,-3.06778 -1.191228,1.15337 -3.082365,0.46648 -2.056356,1.77127 1.026009,1.30834 0.154966,0.94517 0,1.23894 -0.392344,0.74328 -0.629722,1.10329 -0.346998,3.24837 0.279176,2.14231 -3.425024,2.1293 -3.671866,1.57608 -0.661267,-1.48736 -2.235769,0.74052 -2.608397,1.30518 -0.37184,0.55835 -1.719216,2.03585 -1.719216,2.03585 l 1.545323,1.97986 -4.51373,3.95656 c 0,0 -6.276321,4.35404 -6.367802,4.91554 -0.09542,0.55756 -2.787417,7.77866 -1.855255,9.92335 0.932162,2.14507 3.288986,7.55942 5.520418,7.73923 2.92109,0.23816 10.01522,-1.33949 10.01522,-1.33949 0.188878,0.46884 1.438858,2.32054 1.438858,2.32054 0,0 3.565007,0.41601 3.75625,0.78864 0.06467,0.13249 -1.788616,3.73613 -0.648649,5.33114 2.472752,3.46327 4.837857,6.92813 3.477863,8.53536 -3.247189,4.87334 -0.140377,6.35202 0.648254,8.90601 0.28233,0.74722 1.205029,3.09064 2.628113,5.50267 1.422691,4.14268 2.334348,2.28742 4.203796,2.96959 2.3032,0.2011 4.24244,1.04651 6.19904,-1.46883 0.56702,-0.46292 1.53112,-0.0931 1.53112,-0.74407 0,-0.36908 1.66954,-1.43846 2.09658,-2.43923 0.45307,-0.20623 1.61314,-0.99368 2.40217,-1.36789 0.71371,-0.0461 -0.68177,-1.96369 0.7421,-3.99086 1.52758,-0.60055 5.65764,-3.38402 5.65764,-3.38402 0.18651,-4.07959 -2.01022,-9.12091 2.08711,-12.01282 2.64468,-2.68608 6.10716,-4.22115 7.78852,-8.32282 0.4653,-1.21015 1.50629,-3.68922 -1.48104,-2.94593 -2.80635,0.70701 -5.93682,0.86631 -4.45222,-0.36948 -0.16798,-1.51338 -2.04256,-2.22748 -3.7113,-3.71208 -0.86552,-2.04256 -2.2267,-5.68997 -2.2267,-5.68997 l -2.96762,-4.51137 0.37026,-0.92901 3.52558,5.1959 3.52518,4.2661 c 1.29848,4.26649 2.41006,4.63833 2.41006,4.63833 1.95344,-0.68689 6.58467,-2.59538 6.58467,-2.59538 l 4.54291,-4.36113 c 0,0 -0.46135,-1.38839 -2.31779,-3.15374 l -1.39075,-0.83555 c -0.30401,0.85409 -1.91676,1.17624 -1.91676,1.17624 l -1.04967,-1.5469 -1.38996,-1.57608 -1.48657,-1.57647 1.46015,-0.29653 1.12419,2.14232 2.70343,0.93571 c 0,0 0.74762,-0.54849 2.13561,0.88563 1.1305,-0.0911 3.52163,0.22752 3.52163,0.22752 0,0 2.02915,-0.009 3.06068,1.29888 0.19834,0.25473 0.4854,1.45818 0.86592,1.73262 1.29848,0.92664 2.38245,2.75351 3.3986,6.24438 0.59581,2.04256 1.20503,5.44156 2.24326,5.45772 0.45071,0.007 0.78469,0.18573 0.63288,-0.61119 -0.18415,-0.37105 -0.46372,-4.28818 -0.46372,-4.28818 0,0 0.46372,-4.35009 0.74329,-6.12135 0.70622,-1.50392 0.82254,0.003 2.50548,2.87298 -0.007,-0.0457 -0.0142,-0.0919 -0.0237,-0.14116 z m -46.38176,-31.97821 c 0.37026,-1.09698 2.50667,-1.47119 2.50667,-1.47119 0,0 -0.61435,1.1309 -0.47082,1.71646 0.14275,0.58871 -0.97474,0.96449 -1.10329,2.34697 -0.11632,1.38207 -2.67307,0.57254 -2.886,0.0887 -0.20307,-0.48541 1.57924,-1.58318 1.95344,-2.68096 z m 9.1497,18.67006 c -1.5816,0 -6.33034,0.46923 -7.63474,-0.46293 -1.30558,-0.92861 -2.31976,0.095 -3.26059,1.02719 -0.61592,0.60804 -2.858396,-0.62104 -3.511777,-1.55321 -0.652987,-0.93255 -2.844198,-0.86315 -2.844198,-0.86315 l 0.49526,-2.65769 -6.307471,-0.30835 -3.587483,1.04887 -3.376524,0.10134 1.89232,-0.90495 2.350121,-0.55835 c 0,0 3.426208,-2.80989 4.452217,-3.649 0.86986,-0.70819 4.329584,-0.30796 4.329584,-0.30796 l 3.801991,2.74404 c 0,0 -0.840287,2.14548 -1.214492,2.6084 1.395482,-0.095 3.039382,-2.63087 3.039382,-2.63087 -2.968011,-2.72275 -2.845379,-3.649 -2.845379,-3.649 l 3.908459,2.74089 0.0355,0.0256 c 0,0 1.58081,3.72786 2.23931,3.72786 0.65062,0 1.48263,-2.56778 1.48263,-2.56778 l 1.11434,-0.2776 c 0.49565,1.17585 1.4219,3.83472 2.53268,3.21288 0.6388,-0.35331 1.69911,-0.0323 2.90887,0.43533 1.21449,0.46292 2.04255,-0.24842 3.0311,0.61789 -0.1246,3.83551 -2.37693,2.28821 -3.0311,2.10052 z m 2.48419,-6.41631 c -1.6372,-0.62104 -3.69395,-0.36947 -3.69395,-0.36947 -0.70661,0.65496 -3.44671,-0.082 -2.2196,-1.53704 1.22711,-1.45187 2.34854,-2.15494 2.92424,-0.96805 0.14866,0.48541 1.98617,1.2421 1.97671,0.21451 -0.0162,-1.03074 1.83987,-1.57608 2.11274,-0.80992 -0.99092,0.71134 0.0568,1.30163 0.79533,1.70186 2.07568,1.13051 3.07882,2.72315 -1.89547,1.76811 z m 10.38193,3.13402 c -0.90219,-0.7279 0.40772,-1.3521 -0.92467,-2.49246 -1.91401,-1.63563 -3.39703,-2.34066 -0.79415,-3.6632 3.20381,-0.40338 0.51695,1.02089 1.04809,1.87774 0.28509,0.45661 1.91007,1.98222 3.17306,3.85364 1.04967,1.55479 -1.60408,1.14825 -2.50233,0.42428 z M 27.20383,268.80346 c 1.026403,-0.0919 3.7042,-2.41636 5.102049,-1.94713 1.401792,0.46293 2.55201,-0.47594 3.8568,-1.31149 0.464504,-0.095 1.116307,0.18217 2.240895,-0.37736 1.119462,-0.55796 3.355231,-1.76811 3.913188,-1.76811 0.557956,0 2.420309,-0.0694 2.882841,-0.81308 0,0 1.389962,0.18572 2.226309,0.28036 1.15534,0.12578 5.80866,1.11473 7.01921,0.64865 0.66639,-0.25631 3.46248,-0.48265 5.85164,-0.63406 -0.10923,-0.0241 -0.22161,-0.0532 -0.33359,-0.0773 -0.32058,-0.0678 -0.64904,-0.12421 -0.97514,-0.18533 -0.50433,-0.095 -1.01024,-0.19203 -1.52088,-0.27129 -0.2216,-0.0339 -0.4436,-0.0595 -0.66679,-0.0919 -0.61749,-0.0872 -1.23618,-0.17271 -1.85841,-0.23541 -0.0217,-0.002 -0.0394,-0.002 -0.0595,-0.005 -1.60289,-0.16128 -3.2326,-0.24527 -4.8765,-0.24527 -0.33359,0 -0.66126,0.0178 -0.9917,0.0256 -0.61316,0.0126 -1.22632,0.0292 -1.83396,0.0647 -0.474364,0.0272 -0.944782,0.0658 -1.414807,0.10804 -0.530748,0.0454 -1.056371,0.10134 -1.581993,0.16601 -0.451886,0.0548 -0.904955,0.10489 -1.35408,0.17113 -0.86158,0.12894 -1.714484,0.27602 -2.559502,0.44992 -0.412849,0.0836 -0.817811,0.18887 -1.225927,0.28233 -0.535481,0.12421 -1.067807,0.25315 -1.595007,0.3951 -0.434535,0.11593 -0.863156,0.23738 -1.292172,0.36593 -0.535086,0.16127 -1.066229,0.33398 -1.593429,0.513 -0.372234,0.12579 -0.751171,0.24329 -1.121433,0.37894 -0.806375,0.29534 -1.603287,0.61473 -2.389158,0.95187 -0.38288,0.16443 -0.758663,0.3403 -1.1376,0.51301 -0.490135,0.22594 -0.975931,0.45662 -1.456208,0.69873 -0.380908,0.19006 -0.761817,0.38051 -1.135628,0.58082 -0.55638,0.29653 -1.103295,0.60961 -1.645479,0.92743 -0.231069,0.13368 -0.464898,0.26104 -0.692418,0.39826 0.206621,0.38407 0.864734,0.47239 2.218419,0.043 z"
     style="fill:url(#radialGradient2866)" /></g>
<rect
   y="-260.71799"
   width="360"
   height="360"
   id="rect44"
   x="0"
   style="fill:none" />

</svg>